<?xml version="1.0" standalone="no"?>
<!DOCTYPE svg PUBLIC "-//W3C//DTD SVG 20010904//EN"
 "http://www.w3.org/TR/2001/REC-SVG-20010904/DTD/svg10.dtd">
<svg version="1.0" xmlns="http://www.w3.org/2000/svg"
 width="270.000000pt" height="270.000000pt" viewBox="0 0 270.000000 270.000000"
 preserveAspectRatio="xMidYMid meet">
<metadata>
Created by potrace 1.14, written by Peter Selinger 2001-2017
</metadata>
<g transform="translate(0.000000,270.000000) scale(0.100000,-0.100000)"
fill="#000000" stroke="none">
<path d="M0 1350 l0 -1350 1350 0 1350 0 0 1350 0 1350 -1350 0 -1350 0 0
-1350z m1970 535 l0 -195 -94 0 -94 0 -8 108 -9 107 -323 3 -322 2 2 -277 3
-278 313 -3 312 -2 0 -85 0 -85 -315 0 -315 0 0 -269 c0 -248 1 -270 18 -275
9 -2 50 -10 90 -16 l72 -12 0 -69 0 -69 -290 0 -290 0 0 69 0 68 77 13 c42 6
83 14 90 17 11 4 13 124 13 638 l0 632 -62 12 c-132 25 -118 14 -118 92 l0 69
625 0 625 0 0 -195z"/>
</g>
</svg>
